<?xml version="1.0" encoding="utf-8"?>
<svg width="377" height="94" viewBox="0 0 377 94" fill="none" xmlns="http://www.w3.org/2000/svg">
  <path d="M7.098 76.362Q5.226 76.362 4.368 75.504Q3.51 74.646 3.51 72.774L3.51 22.23Q3.51 21.216 3.783 20.514Q4.056 19.812 4.602 19.344L14.664 10.842Q15.054 10.53 15.717 10.335Q16.38 10.14 17.16 10.14L42.042 10.14Q50.154 10.14 53.976 13.299Q57.798 16.458 57.798 22.854L57.798 26.598Q57.798 29.328 57.057 31.278Q56.316 33.228 54.834 34.398L54.6 34.554Q58.812 35.49 60.918 38.571Q63.024 41.652 63.024 47.112L63.024 54.288Q63.024 57.798 62.01 60.333Q60.996 62.868 58.968 64.584L48.906 73.086Q46.956 74.724 43.992 75.543Q41.028 76.362 37.05 76.362L7.098 76.362ZM47.112 67.08C52.26 67.08 56.069 66.04 58.539 63.96Q62.244 60.84 62.244 54.288L62.244 47.112Q62.244 41.418 59.826 38.454Q57.408 35.49 52.416 35.022Q54.756 34.008 55.887 31.941Q57.018 29.874 57.018 26.598L57.018 22.854Q57.018 16.77 53.352 13.845Q49.686 10.92 42.042 10.92L17.16 10.92Q15.678 10.92 15.015 11.583Q14.352 12.246 14.352 13.728L14.352 64.272Q14.352 65.754 15.015 66.417Q15.678 67.08 17.16 67.08L47.112 67.08ZM43.992 60.06L23.01 60.06L23.01 17.94L38.844 17.94Q42.042 17.94 44.07 18.603Q46.098 19.266 47.19 20.397Q48.282 21.528 48.672 23.01Q49.062 24.492 49.062 26.208L49.062 31.2Q49.062 33.54 48.243 35.49Q47.424 37.44 44.07 38.298Q47.268 38.298 49.296 38.961Q51.324 39.624 52.416 40.833Q53.508 42.042 53.859 43.68Q54.21 45.318 54.21 47.268L54.21 52.26Q54.21 53.976 53.82 55.419Q53.43 56.862 52.377 57.876Q51.324 58.89 49.296 59.475Q47.268 60.06 43.992 60.06ZM38.844 18.72L23.79 18.72L23.79 38.298L38.844 38.298Q42.042 38.298 43.914 37.713Q45.786 37.128 46.761 36.153Q47.736 35.178 48.009 33.891Q48.282 32.604 48.282 31.2L48.282 26.208Q48.282 23.088 46.488 20.904Q44.694 18.72 38.844 18.72ZM31.902 24.18L38.532 24.18Q40.014 24.18 40.755 24.96Q41.496 25.74 41.496 27.3L41.496 29.484Q41.496 31.044 40.755 31.824Q40.014 32.604 38.532 32.604L31.902 32.604L31.902 24.18ZM44.07 39.078L23.79 39.078L23.79 59.28L43.992 59.28Q49.842 59.28 51.636 57.369Q53.43 55.458 53.43 52.26L53.43 47.268Q53.43 43.758 51.675 41.418Q49.92 39.078 44.07 39.078ZM31.902 44.616L42.042 44.616Q43.524 44.616 44.265 45.357Q45.006 46.098 45.006 47.658L45.006 50.7Q45.006 52.26 44.265 53.04Q43.524 53.82 42.042 53.82L31.902 53.82L31.902 44.616ZM111.15 76.362L71.448 76.362Q69.576 76.362 68.718 75.504Q67.86 74.646 67.86 72.774L67.86 22.23Q67.86 21.216 68.133 20.514Q68.406 19.812 68.952 19.344L79.014 10.842Q79.404 10.53 80.067 10.335Q80.73 10.14 81.51 10.14L93.6 10.14Q95.472 10.14 96.33 10.998Q97.188 11.856 97.188 13.728L97.188 45.474L97.344 45.318L107.406 36.816Q107.796 36.504 108.459 36.309Q109.122 36.114 109.902 36.114L121.212 36.114Q123.084 36.114 123.942 36.972Q124.8 37.83 124.8 39.702L124.8 64.272Q124.8 65.286 124.527 65.988Q124.254 66.69 123.708 67.158L113.568 75.582Q113.256 75.894 112.593 76.128Q111.93 76.362 111.15 76.362ZM121.212 67.08Q122.694 67.08 123.357 66.417Q124.02 65.754 124.02 64.272L124.02 39.702Q124.02 38.22 123.357 37.557Q122.694 36.894 121.212 36.894L109.902 36.894Q108.42 36.894 107.757 37.557Q107.094 38.22 107.094 39.702L107.094 52.338L96.408 52.338L96.408 13.728Q96.408 12.246 95.745 11.583Q95.082 10.92 93.6 10.92L81.51 10.92Q80.028 10.92 79.365 11.583Q78.702 12.246 78.702 13.728L78.702 64.272Q78.702 65.754 79.365 66.417Q80.028 67.08 81.51 67.08L121.212 67.08ZM87.204 60.06L87.204 17.94L87.984 17.94L87.984 59.28L115.128 59.28L115.128 43.914L115.908 43.914L115.908 60.06L87.204 60.06ZM174.33 72.618Q171.6 74.958 166.686 76.245Q161.772 77.532 154.05 77.532Q146.406 77.532 141.531 75.933Q136.656 74.334 133.887 71.682Q131.118 69.03 130.065 65.598Q129.012 62.166 129.012 58.5L129.012 34.242Q129.012 30.654 130.026 27.573Q131.04 24.492 133.692 22.308L143.832 13.884Q146.562 11.544 151.437 10.257Q156.312 8.97 164.112 8.97Q171.756 8.97 176.631 10.218Q181.506 11.466 184.275 13.689Q187.044 15.912 188.058 18.993Q189.072 22.074 189.072 25.74L189.072 52.338Q189.072 55.926 188.058 58.968Q187.044 62.01 184.392 64.194L174.33 72.618ZM188.292 52.338L188.292 25.74Q188.292 22.152 187.239 19.227Q186.186 16.302 183.495 14.196Q180.804 12.09 176.085 10.92Q171.366 9.75 164.112 9.75Q156.858 9.75 152.1 10.92Q147.342 12.09 144.651 14.196Q141.96 16.302 140.907 19.227Q139.854 22.152 139.854 25.74L139.854 52.338Q139.854 55.926 140.907 58.851Q141.96 61.776 144.651 63.843Q147.342 65.91 152.1 67.08Q156.858 68.25 164.112 68.25Q171.366 68.25 176.085 67.08Q180.804 65.91 183.495 63.843Q186.186 61.776 187.239 58.851Q188.292 55.926 188.292 52.338ZM179.79 50.544Q179.79 55.224 176.436 58.149Q173.082 61.074 163.956 61.074Q154.83 61.074 151.554 58.149Q148.278 55.224 148.278 50.544L148.278 27.534Q148.278 22.854 151.554 19.929Q154.83 17.004 163.956 17.004Q173.082 17.004 176.436 19.929Q179.79 22.854 179.79 27.534L179.79 50.544ZM149.058 50.544Q149.058 54.912 152.178 57.603Q155.298 60.294 163.956 60.294Q172.614 60.294 175.812 57.603Q179.01 54.912 179.01 50.544L179.01 27.534Q179.01 23.166 175.812 20.475Q172.614 17.784 163.956 17.784Q155.298 17.784 152.178 20.475Q149.058 23.166 149.058 27.534L149.058 50.544ZM157.56 49.53L157.56 28.548Q157.56 27.066 158.73 26.013Q159.9 24.96 164.112 24.96Q168.324 24.96 169.494 26.013Q170.664 27.066 170.664 28.548L170.664 49.53Q170.664 51.09 169.494 52.143Q168.324 53.196 164.112 53.196Q159.9 53.196 158.73 52.143Q157.56 51.09 157.56 49.53ZM158.34 49.53Q158.34 50.31 158.652 50.895Q158.964 51.48 159.822 51.87L159.822 37.05Q159.822 36.27 159.51 35.685Q159.198 35.1 158.34 34.788L158.34 49.53ZM238.836 76.362L214.266 76.362Q204.048 76.362 199.173 71.058Q194.298 65.754 194.298 57.33L194.298 35.334Q194.298 31.044 195.546 27.924Q196.794 24.804 199.212 22.698L209.274 14.196Q211.692 12.168 215.475 11.154Q219.258 10.14 224.328 10.14L243.828 10.14Q245.7 10.14 246.558 10.998Q247.416 11.856 247.416 13.728L247.416 23.166Q247.416 24.18 247.143 24.882Q246.87 25.584 246.324 26.052L236.184 34.476Q235.872 34.788 235.209 35.022Q234.546 35.256 233.766 35.256L223.626 35.256L223.626 46.488Q223.704 46.332 223.899 46.137Q224.094 45.942 224.25 45.786L234.312 37.284Q234.702 36.972 235.365 36.777Q236.028 36.582 236.808 36.582L248.898 36.582Q250.77 36.582 251.628 37.44Q252.486 38.298 252.486 40.17L252.486 64.272Q252.486 65.286 252.213 65.988Q251.94 66.69 251.394 67.158L241.254 75.582Q240.942 75.894 240.279 76.128Q239.616 76.362 238.836 76.362ZM248.898 67.08Q250.38 67.08 251.043 66.417Q251.706 65.754 251.706 64.272L251.706 40.17Q251.706 38.688 251.043 38.025Q250.38 37.362 248.898 37.362L236.808 37.362Q235.326 37.362 234.663 38.025Q234 38.688 234 40.17L234 52.338L226.434 52.338Q224.64 52.338 223.743 51.402Q222.846 50.466 222.846 48.516L222.846 29.874Q222.846 27.924 224.016 26.949Q225.186 25.974 227.604 25.974L243.828 25.974Q245.31 25.974 245.973 25.311Q246.636 24.648 246.636 23.166L246.636 13.728Q246.636 12.246 245.973 11.583Q245.31 10.92 243.828 10.92L224.328 10.92Q214.578 10.92 209.859 14.82Q205.14 18.72 205.14 26.832L205.14 51.168Q205.14 59.28 209.859 63.18C213.005 65.78 217.828 67.08 224.328 67.08L248.898 67.08ZM227.682 60.06Q223.392 60.06 220.662 59.514Q217.932 58.968 216.372 57.759Q214.812 56.55 214.227 54.639Q213.642 52.728 213.642 49.998L213.642 28.158Q213.642 22.62 216.138 20.28Q218.634 17.94 226.122 17.94L239.616 17.94L239.616 18.72L226.122 18.72Q219.258 18.72 216.84 20.865Q214.422 23.01 214.422 28.158L214.422 49.998Q214.422 55.068 217.113 57.174Q219.804 59.28 227.682 59.28L242.424 59.28L242.424 44.382L243.204 44.382L243.204 60.06L227.682 60.06ZM301.86 76.362L277.29 76.362Q267.072 76.362 262.197 71.058Q257.322 65.754 257.322 57.33L257.322 35.334Q257.322 31.044 258.57 27.924Q259.818 24.804 262.236 22.698L272.298 14.196Q274.716 12.168 278.499 11.154Q282.282 10.14 287.352 10.14L306.852 10.14Q308.724 10.14 309.582 10.998Q310.44 11.856 310.44 13.728L310.44 23.166Q310.44 24.18 310.167 24.882Q309.894 25.584 309.348 26.052L299.208 34.476Q298.896 34.788 298.233 35.022Q297.57 35.256 296.79 35.256L286.65 35.256L286.65 46.488Q286.728 46.332 286.923 46.137Q287.118 45.942 287.274 45.786L297.336 37.284Q297.726 36.972 298.389 36.777Q299.052 36.582 299.832 36.582L311.922 36.582Q313.794 36.582 314.652 37.44Q315.51 38.298 315.51 40.17L315.51 64.272Q315.51 65.286 315.237 65.988Q314.964 66.69 314.418 67.158L304.278 75.582Q303.966 75.894 303.303 76.128Q302.64 76.362 301.86 76.362ZM311.922 67.08Q313.404 67.08 314.067 66.417Q314.73 65.754 314.73 64.272L314.73 40.17Q314.73 38.688 314.067 38.025Q313.404 37.362 311.922 37.362L299.832 37.362Q298.35 37.362 297.687 38.025Q297.024 38.688 297.024 40.17L297.024 52.338L289.458 52.338Q287.664 52.338 286.767 51.402Q285.87 50.466 285.87 48.516L285.87 29.874Q285.87 27.924 287.04 26.949Q288.21 25.974 290.628 25.974L306.852 25.974Q308.334 25.974 308.997 25.311Q309.66 24.648 309.66 23.166L309.66 13.728Q309.66 12.246 308.997 11.583Q308.334 10.92 306.852 10.92L287.352 10.92Q277.602 10.92 272.883 14.82Q268.164 18.72 268.164 26.832L268.164 51.168Q268.164 59.28 272.883 63.18C276.029 65.78 280.852 67.08 287.352 67.08L311.922 67.08ZM290.706 60.06Q286.416 60.06 283.686 59.514Q280.956 58.968 279.396 57.759Q277.836 56.55 277.251 54.639Q276.666 52.728 276.666 49.998L276.666 28.158Q276.666 22.62 279.162 20.28Q281.658 17.94 289.146 17.94L302.64 17.94L302.64 18.72L289.146 18.72Q282.282 18.72 279.864 20.865Q277.446 23.01 277.446 28.158L277.446 49.998Q277.446 55.068 280.137 57.174Q282.828 59.28 290.706 59.28L305.448 59.28L305.448 44.382L306.228 44.382L306.228 60.06L290.706 60.06ZM361.686 76.362L322.998 76.362Q321.126 76.362 320.268 75.504Q319.41 74.646 319.41 72.774L319.41 62.322Q319.41 60.606 319.917 59.397Q320.424 58.188 321.516 57.018L339.456 35.256L324.402 35.256Q322.53 35.256 321.672 34.398Q320.814 33.54 320.814 31.668L320.814 22.23Q320.814 21.216 321.087 20.514Q321.36 19.812 321.906 19.344L331.968 10.842Q332.358 10.53 333.021 10.335Q333.684 10.14 334.464 10.14L370.344 10.14Q372.216 10.14 373.074 10.998Q373.932 11.856 373.932 13.728L373.932 25.35Q373.932 27.066 373.425 28.314Q372.918 29.562 371.826 30.732L354.744 51.402L371.748 51.402Q373.62 51.402 374.478 52.26Q375.336 53.118 375.336 54.99L375.336 64.272Q375.336 65.286 375.063 65.988Q374.79 66.69 374.244 67.158L364.104 75.582Q363.792 75.894 363.129 76.128Q362.466 76.362 361.686 76.362ZM371.748 67.08Q373.23 67.08 373.893 66.417Q374.556 65.754 374.556 64.272L374.556 54.99Q374.556 53.508 373.893 52.845Q373.23 52.182 371.748 52.182L353.106 52.182L371.202 30.264Q372.216 29.172 372.684 28.041Q373.152 26.91 373.152 25.35L373.152 13.728Q373.152 12.246 372.489 11.583Q371.826 10.92 370.344 10.92L334.464 10.92Q332.982 10.92 332.319 11.583Q331.656 12.246 331.656 13.728L331.656 23.166Q331.656 24.648 332.319 25.311Q332.982 25.974 334.464 25.974L351.156 25.974L332.202 48.984Q331.188 50.076 330.72 51.207Q330.252 52.338 330.252 53.82L330.252 64.272Q330.252 65.754 330.915 66.417Q331.578 67.08 333.06 67.08L371.748 67.08ZM363.558 24.648L340.704 53.976Q340.158 54.678 339.885 55.146Q339.612 55.614 339.612 56.394L339.612 57.486Q339.612 58.578 340.119 58.929Q340.626 59.28 341.25 59.28L367.536 59.28L367.536 60.06L341.25 60.06Q340.002 60.06 339.417 59.436Q338.832 58.812 338.832 57.486L338.832 56.238Q338.832 55.38 339.222 54.717Q339.612 54.054 340.158 53.352L363.012 24.024Q363.558 23.322 363.831 22.854Q364.104 22.386 364.104 21.606L364.104 20.514Q364.104 19.422 363.597 19.071Q363.09 18.72 362.466 18.72L338.676 18.72L338.676 17.94L362.466 17.94Q363.714 17.94 364.299 18.564Q364.884 19.188 364.884 20.514L364.884 21.762Q364.884 22.62 364.494 23.283Q364.104 23.946 363.558 24.648Z" fill="#FFFFFF" />
</svg>