<?xml version="1.0" standalone="no"?>
<!DOCTYPE svg PUBLIC "-//W3C//DTD SVG 20010904//EN"
 "http://www.w3.org/TR/2001/REC-SVG-20010904/DTD/svg10.dtd">
<svg version="1.0" xmlns="http://www.w3.org/2000/svg"
 width="3072.000000pt" height="3072.000000pt" viewBox="0 0 3072.000000 3072.000000"
 preserveAspectRatio="xMidYMid meet">
<metadata>
Created by potrace 1.10, written by Peter Selinger 2001-2011
</metadata>
<g transform="translate(0.000000,3072.000000) scale(0.100000,-0.100000)"
fill="#000000" stroke="none">
<path d="M1670 25760 c-41 -4 -100 -14 -130 -23 -65 -17 -178 -65 -201 -84 -8
-7 -19 -13 -23 -13 -15 0 -153 -109 -191 -151 -83 -92 -149 -184 -171 -239 -3
-8 -12 -31 -20 -50 -42 -105 -44 -138 -44 -805 0 -731 -2 -708 83 -895 45 -99
195 -271 297 -339 104 -69 230 -121 315 -131 l50 -5 6 -195 c7 -230 19 -280
80 -335 38 -34 41 -35 123 -35 77 0 86 2 127 31 24 17 49 37 54 43 6 6 62 56
125 110 63 54 126 108 140 120 14 12 54 46 90 76 36 30 67 57 70 60 3 3 32 29
66 58 l61 52 229 0 c162 0 248 4 294 14 72 16 147 39 176 54 128 64 189 106
264 183 37 36 82 90 102 120 55 83 128 235 128 267 0 9 8 37 17 62 15 39 17
113 20 590 6 711 -2 793 -92 977 -63 128 -137 212 -290 330 -66 51 -171 99
-300 139 -56 17 -108 19 -720 20 -363 1 -694 -2 -735 -6z m1406 -289 c40 -11
80 -24 90 -29 70 -35 95 -50 146 -89 93 -71 158 -163 198 -283 19 -57 20 -86
20 -674 0 -681 5 -625 -69 -776 -61 -125 -195 -252 -313 -296 -103 -38 -183
-45 -419 -39 -222 7 -259 3 -279 -25 -3 -4 -41 -38 -85 -76 -44 -38 -98 -85
-120 -105 -187 -171 -319 -279 -326 -267 -5 7 -9 82 -9 166 0 167 -8 197 -65
254 -31 32 -30 31 -155 53 -137 24 -211 54 -304 124 -97 73 -174 192 -210 327
-14 53 -16 137 -16 660 0 574 1 602 21 664 63 201 220 352 429 410 60 17 120
18 730 19 623 0 670 -1 736 -18z"/>
<path d="M1547 24958 c-73 -20 -111 -120 -71 -188 38 -63 -9 -60 887 -60 l814
0 42 38 c38 33 42 42 43 84 1 58 -18 89 -69 114 -36 18 -74 19 -823 21 -504 1
-799 -3 -823 -9z"/>
<path d="M1507 24405 c-69 -67 -56 -155 29 -200 38 -19 59 -20 584 -23 616 -4
631 -3 680 56 54 65 52 109 -7 167 l-36 35 -607 0 -607 0 -36 -35z"/>
<path d="M1528 23905 c-33 -18 -68 -74 -68 -109 0 -37 39 -92 78 -110 48 -23
858 -24 902 -1 59 31 77 108 37 166 -46 68 -45 68 -507 68 -343 0 -420 -2
-442 -14z"/>
<path d="M4304 25358 c-11 -15 -6 -1939 5 -1956 5 -9 127 -12 473 -12 401 -1
471 1 503 14 21 9 43 16 50 16 12 0 77 29 124 55 83 46 180 169 214 270 33
100 30 326 -5 415 -20 52 -61 110 -104 151 -43 40 -131 95 -160 101 -10 2 -20
13 -22 24 -2 17 7 27 42 44 134 64 205 207 193 386 -7 103 -17 146 -52 217
-62 126 -197 228 -340 257 -131 27 -185 30 -536 30 -290 0 -379 -3 -385 -12z
m693 -339 c78 -19 130 -47 172 -95 44 -51 57 -97 46 -173 -11 -85 -71 -139
-185 -167 -64 -15 -267 -19 -304 -4 l-26 10 0 204 c0 112 3 211 6 220 5 13 26
16 125 16 65 0 140 -5 166 -11z m129 -810 c89 -40 174 -155 174 -235 0 -53
-35 -128 -80 -173 -70 -70 -111 -81 -317 -82 -95 0 -177 2 -183 6 -6 4 -10 89
-10 240 0 230 0 234 22 249 18 13 54 16 184 16 143 0 167 -2 210 -21z"/>
<path d="M5845 25358 c-3 -7 -4 -452 -3 -988 l3 -975 191 -3 191 -2 5 242 c2
134 2 578 -1 988 l-6 745 -188 3 c-144 2 -189 0 -192 -10z"/>
<path d="M6894 24840 c-195 -57 -352 -188 -437 -364 -77 -158 -82 -180 -81
-366 0 -167 9 -222 50 -302 8 -14 14 -31 14 -38 0 -23 92 -149 145 -199 59
-56 201 -151 226 -151 8 0 19 -4 25 -10 24 -24 161 -50 267 -50 177 0 325 45
448 137 124 93 202 205 250 360 29 92 32 387 4 479 -42 143 -93 231 -188 321
-66 62 -184 143 -209 143 -5 0 -22 6 -36 14 -73 37 -126 46 -272 45 -109 0
-160 -5 -206 -19z m298 -331 c29 -7 64 -19 78 -27 36 -22 100 -84 100 -97 0
-6 5 -16 12 -23 30 -30 68 -187 68 -277 -2 -202 -102 -334 -287 -375 -57 -13
-154 1 -184 27 -8 7 -21 13 -27 13 -20 0 -107 95 -128 140 -43 92 -54 142 -54
247 0 118 13 160 72 239 88 117 208 163 350 133z"/>
<path d="M8410 24844 c-128 -43 -238 -110 -300 -184 -105 -125 -165 -315 -165
-520 0 -165 33 -326 85 -411 11 -19 24 -43 29 -55 28 -64 195 -205 261 -221
14 -3 30 -10 37 -15 15 -12 167 -48 201 -48 35 0 186 34 232 52 43 17 81 41
141 90 45 38 63 45 73 30 7 -12 -19 -148 -39 -204 -18 -50 -85 -134 -119 -149
-12 -5 -28 -13 -36 -18 -56 -34 -97 -43 -200 -43 -151 -1 -253 37 -368 134
-18 15 -39 28 -47 28 -17 0 -76 -56 -165 -158 -75 -86 -75 -85 26 -155 102
-70 218 -124 347 -161 79 -23 371 -24 436 -1 24 8 50 15 57 15 26 0 149 64
204 105 131 101 207 221 264 416 14 49 16 140 16 752 0 384 -3 697 -7 697
-209 4 -337 4 -346 -2 -7 -4 -12 -24 -12 -45 0 -33 -3 -38 -25 -41 -15 -2 -45
10 -75 30 -58 38 -91 54 -160 79 -65 24 -277 25 -345 3z m418 -364 c173 -91
233 -357 127 -558 -74 -138 -235 -203 -380 -153 -103 35 -153 83 -200 191 -28
63 -29 312 -2 353 9 14 17 32 17 40 0 19 84 102 123 123 54 28 88 33 182 30
69 -3 100 -8 133 -26z"/>
<path d="M9970 24843 c-134 -47 -228 -108 -293 -188 -46 -57 -117 -190 -117
-219 0 -7 -7 -30 -15 -50 -20 -48 -30 -305 -16 -411 25 -194 103 -349 218
-439 53 -41 182 -106 233 -117 19 -4 55 -13 80 -19 108 -27 331 31 415 109 34
32 76 61 87 61 24 0 -2 -159 -37 -227 -31 -62 -101 -128 -172 -162 -64 -32
-74 -34 -175 -33 -142 0 -217 26 -337 115 -35 26 -67 47 -72 47 -4 0 -27 -20
-51 -44 -133 -134 -179 -186 -173 -196 29 -47 329 -220 382 -220 11 0 40 -7
64 -16 63 -22 368 -22 421 0 21 9 45 16 53 16 30 0 185 82 235 123 94 80 180
215 218 346 15 50 17 134 17 781 l0 725 -175 0 -175 0 -3 -30 c-6 -70 -10 -75
-40 -62 -15 7 -58 30 -97 52 -116 66 -152 75 -300 74 -91 0 -143 -5 -175 -16z
m421 -359 c52 -29 117 -94 138 -139 29 -63 51 -156 51 -218 0 -93 -61 -246
-117 -295 -82 -70 -221 -100 -311 -67 -163 59 -232 174 -232 381 0 73 5 114
16 141 54 126 114 187 209 214 53 15 208 4 246 -17z"/>
<path d="M11160 24842 c-24 -2 -48 -9 -52 -15 -12 -18 -9 -276 2 -298 10 -18
24 -19 311 -19 249 0 301 -2 305 -14 5 -12 -75 -124 -156 -219 -10 -12 -36
-44 -58 -72 -22 -27 -77 -95 -122 -150 -45 -55 -107 -131 -138 -170 -31 -38
-72 -87 -92 -108 -59 -65 -61 -72 -58 -234 l3 -148 578 -3 577 -2 0 165 0 165
-304 0 c-183 0 -307 4 -311 10 -3 5 3 19 14 32 10 13 65 82 122 153 57 72 106
132 109 135 3 3 28 34 55 70 27 36 59 76 72 90 12 14 44 53 70 87 26 34 76 98
111 142 l62 80 -2 163 -3 163 -525 0 c-289 0 -545 -1 -570 -3z"/>
</g>
</svg>
